<?xml version="1.0" standalone="no"?><!DOCTYPE svg PUBLIC "-//W3C//DTD SVG 1.1//EN" "http://www.w3.org/Graphics/SVG/1.1/DTD/svg11.dtd"><svg t="1528882675150" class="icon" style="" viewBox="0 0 1024 1024" version="1.1" xmlns="http://www.w3.org/2000/svg" p-id="3568" xmlns:xlink="http://www.w3.org/1999/xlink" width="48" height="48"><defs><style type="text/css"></style></defs><path d="M512 318.5664c-35.74784 0-64.83456 29.08672-64.83456 64.83456 0 35.75296 29.08672 64.83456 64.83456 64.83456s64.83456-29.0816 64.83456-64.83456c0-35.75296-29.08672-64.83456-64.83456-64.83456z m271.47776-204.54912c-100.5312 0-195.328-32.66048-271.47776-89.10848C435.84512 81.3568 341.04832 114.01728 240.52224 114.01728c-34.93376 0-71.08608-6.4768-108.29312-19.35872v426.45504c0 39.57248 14.1056 88.16128 40.79616 140.50816 27.76064 54.4512 69.20704 113.03936 119.84384 169.43616 44.97408 50.08384 97.48992 98.56512 147.87072 136.50432 22.15424 16.68608 40.6272 28.91264 55.08608 37.61152a22.07232 22.07232 0 0 0 23.15264-0.2304c14.6432-9.21088 33.31072-21.92384 55.71072-38.94784 51.97824-39.52128 105.80992-88.704 151.57248-138.50112 52.44416-57.0624 95.2576-115.73248 123.82208-169.66656 27.27424-51.52256 41.69216-98.79552 41.69216-136.71424V94.65344c-37.21216 12.88192-73.36448 19.36384-108.29824 19.36384z m-230.54848 442.0096v186.12736a40.9344 40.9344 0 0 1-81.86368 0v-186.12736c-78.15168-18.52928-136.46848-88.88832-136.46848-172.62592 0-97.8176 79.58016-177.39776 177.39776-177.39776 97.8176 0 177.39776 79.58016 177.39776 177.39776 0.00512 83.73248-58.31168 154.09664-136.46336 172.62592z" p-id="3569" fill="#ffffff"></path></svg>