<?xml version="1.0" standalone="no"?><!DOCTYPE svg PUBLIC "-//W3C//DTD SVG 1.1//EN" "http://www.w3.org/Graphics/SVG/1.1/DTD/svg11.dtd"><svg t="1528806435059" class="icon" style="" viewBox="0 0 1024 1024" version="1.1" xmlns="http://www.w3.org/2000/svg" p-id="1945" xmlns:xlink="http://www.w3.org/1999/xlink" width="48" height="48"><defs><style type="text/css"></style></defs><path d="M872.6912 488.96 209.36064 488.96l319.64288-319.51488c9.39008-9.39008 9.39008-24.48896 0-33.87904-9.39264-9.39008-24.61568-9.37088-34.00704 0.02048l-360.6912 360.7296c-6.87744 6.87744-8.9344 17.29792-5.21216 26.28224 3.72224 8.98688 12.48896 15.0016 22.21568 15.0016l721.3824 0c13.28128 0 24.04608-11.04 24.04608-24.32C896.73728 500 885.97248 488.96 872.6912 488.96zM277.87264 605.43232c-9.40672-9.37472-24.63104-9.34912-34.00576 0.0576-9.376 9.40672-9.34912 24.63104 0.05632 34.00576l251.10144 250.26688c4.69376 4.67712 10.83392 7.01312 16.97536 7.01312 6.16576 0 12.33408-2.35904 17.03296-7.07072 9.37344-9.40672 9.34912-24.63104-0.05888-34.00576L277.87264 605.43232z" p-id="1946" fill="#333333"></path></svg>