<?xml version="1.0" standalone="no"?><!DOCTYPE svg PUBLIC "-//W3C//DTD SVG 1.1//EN" "http://www.w3.org/Graphics/SVG/1.1/DTD/svg11.dtd"><svg t="1528946311652" class="icon" style="" viewBox="0 0 1024 1024" version="1.1" xmlns="http://www.w3.org/2000/svg" p-id="2513" xmlns:xlink="http://www.w3.org/1999/xlink" width="48" height="48"><defs><style type="text/css"></style></defs><path d="M458.48064 875.2128c-198.29248 0-359.59808-161.32096-359.59808-359.59808s161.3056-359.59808 359.59808-359.59808c128.79872 0 248.50944 69.5296 312.4224 181.47328a20.0704 20.0704 0 0 0 27.27424 7.43424 20.00896 20.00896 0 0 0 7.45472-27.25376c-71.05536-124.35456-204.06784-201.61024-347.15136-201.61024-220.29824 0-399.54944 179.23072-399.54944 399.54944s179.2512 399.54944 399.54944 399.54944c11.04384 0 19.97824-8.9344 19.97824-19.97824s-8.9344-19.968-19.97824-19.968z" fill="#ffffff" p-id="2514"></path><path d="M454.22592 758.1184c162.944 0 210.78016-161.41824 211.21024-163.05664a19.94752 19.94752 0 0 0-13.73696-24.6784c-10.80832-3.1232-21.6576 3.15904-24.65792 13.75232-0.38912 1.34656-39.68 134.03136-172.81536 134.03136-132.23424 0-169.18528-128.37376-170.70592-133.83168a19.95264 19.95264 0 0 0-24.54528-13.96736 19.93728 19.93728 0 0 0-14.00832 24.46336c0.4352 1.6128 46.12608 163.28704 209.25952 163.28704z" fill="#ffffff" p-id="2515"></path><path d="M278.6816 435.70688m-39.95648 0a39.95648 39.95648 0 1 0 79.91296 0 39.95648 39.95648 0 1 0-79.91296 0Z" fill="#ffffff" p-id="2516"></path><path d="M638.27968 435.70688m-39.95648 0a39.95648 39.95648 0 1 0 79.91296 0 39.95648 39.95648 0 1 0-79.91296 0Z" fill="#ffffff" p-id="2517"></path><path d="M965.84192 425.25184l-6.59456-4.8384c-25.67168-18.82624-64.84992-12.30848-83.26656 13.50144l-238.67904 333.58848c-0.256 0.3584-0.30208 0.80384-0.53248 1.17248a19.74784 19.74784 0 0 0-4.50048 7.42912l-36.44416 114.08896a20.00384 20.00384 0 0 0 6.51776 21.6576 19.9424 19.9424 0 0 0 22.5536 1.69472l109.7984-63.85152c0.2048-0.11776 0.3072-0.32256 0.50688-0.44544 3.28704-1.44384 6.29248-3.43552 8.39168-6.42048l235.79136-333.96224c18.88256-26.76736 12.83072-64.26112-13.5424-83.61472z m-302.592 385.2288l26.80832 18.96448-40.38656 23.46496 13.57824-42.42944z m283.50976-324.65408l-224.2816 317.61408-41.00608-29.00992 226.9696-317.2608c6.01088-8.3712 18.88256-10.6496 27.15648-4.52608l6.59456 4.8384c8.93952 6.53312 10.96704 19.2512 4.56704 28.34432z" fill="#ffffff" p-id="2518"></path></svg>