<?xml version="1.0" standalone="no"?><!DOCTYPE svg PUBLIC "-//W3C//DTD SVG 1.1//EN" "http://www.w3.org/Graphics/SVG/1.1/DTD/svg11.dtd"><svg t="1529502876956" class="icon" style="" viewBox="0 0 1024 1024" version="1.1" xmlns="http://www.w3.org/2000/svg" p-id="1986" xmlns:xlink="http://www.w3.org/1999/xlink" width="48" height="48"><defs><style type="text/css"></style></defs><path d="M734.729 45.241c-87.568 0-168.985 43.928-222.575 116.359C458.594 89.149 377.195 45.241 289.582 45.241 131.73 45.241 3.309 185.646 3.309 358.244c0 102.965 45.996 175.201 82.971 233.235 107.458 168.576 377.642 378.358 389.086 387.204 11.025 8.521 23.915 12.787 36.774 12.787 12.889 0 25.759-4.267 36.769-12.787 11.459-8.846 281.662-218.628 389.089-387.204 36.99-58.039 83.002-130.27 83.002-233.234C1021 185.646 892.574 45.241 734.729 45.241L734.729 45.241zM885.727 551.641C783.442 712.152 512.14 921.804 512.14 921.804S240.866 712.152 138.547 551.641c-37.737-59.254-71.525-115.577-71.525-193.396 0-134.378 99.632-243.355 222.559-243.355 90.844 0 168.83 59.599 203.424 144.924l0-0.423 0.092 0c2.578 8.895 10.092 15.383 19.04 15.383 8.979 0 16.494-6.489 19.053-15.383l0.262 0C566.13 174.32 644.007 114.89 734.727 114.89c122.896 0 222.559 108.977 222.559 243.355C957.285 436.063 923.491 492.385 885.727 551.641L885.727 551.641z" p-id="1987" fill="#ffffff"></path><path d="M516.5 245.5 447.5 136.5 322.5 94.5 219.5 94.5 110.5 191.5 48.5 329.5 60.5 419.5 96.5 525.5 217.5 701.5 447.5 902.5 516.5 947.5 692.5 828.5 856.5 668.5 977.5 465.5 992.5 324.5 931.5 169.5 824.5 101.5 721.5 87.5 611.5 121.5Z" p-id="1988" fill="#ffffff"></path></svg>