<?xml version="1.0" standalone="no"?><!DOCTYPE svg PUBLIC "-//W3C//DTD SVG 1.1//EN" "http://www.w3.org/Graphics/SVG/1.1/DTD/svg11.dtd"><svg t="1528976900240" class="icon" style="" viewBox="0 0 1024 1024" version="1.1" xmlns="http://www.w3.org/2000/svg" p-id="2606" xmlns:xlink="http://www.w3.org/1999/xlink" width="48" height="48"><defs><style type="text/css"></style></defs><path d="M824.63241328 72.41649603H203.94541847c-40.195596 0-78.82802992 15.96658396-107.2999104 44.43846446-28.47188049 28.47188049-44.43846446 66.99265998-44.43846447 107.29991043v450.7489473c0 83.74082498 67.88589547 151.73837489 151.73837487 151.73837486h190.37080881l87.76038457 102.05215205c13.17522313 15.18500293 32.26813123 23.89404873 52.36592924 23.67073987h3.349633c21.88426893-0.22330886 42.42868465-10.83048003 55.15729007-28.69518937l66.21107896-97.13935698H824.63241328c83.85247941 0 151.73837489-67.88589547 151.73837487-151.73837488V224.15487092c0-83.85247941-67.99754989-151.73837489-151.73837487-151.73837489z m90.99836315 612.08960344c0 41.20048589-61.40993833 82.62428065-92.11490749 82.17766292H621.42134465L534.44254109 893.85816194 441.65770701 783.32027295l-17.52974603-16.74816498h-213.25996764c-19.31621697 0-54.93398119-13.62184087-68.66747648-27.57864504-13.73349529-13.95680417-29.36511597-49.23960509-29.36511596-69.00243979V226.16465071c0-41.20048589 50.5794583-96.69273924 90.88670872-96.69273925h617.22570737c19.31621697 0 49.68622284 9.71393571 69.11409421 29.03015266 20.65607017 20.65607017 25.45721079 47.89975189 25.45721081 67.66258659v458.34144876z" fill="#ffffff" p-id="2607"></path><path d="M276.63245456 435.40505874c0 27.4669906 22.21923224 49.68622284 49.68622283 49.68622284s49.68622284-22.21923224 49.68622284-49.68622284-22.21923224-49.68622284-49.68622284-49.68622284-49.68622284 22.33088667-49.68622283 49.68622284z m0 0M469.79462421 435.40505874c0 17.75305489 9.49062682 34.1662566 24.78728418 42.98695684 15.4083118 8.82070024 34.27791103 8.82070024 49.68622284 0s24.7872842-25.23390194 24.7872842-42.98695684c0-27.4669906-22.21923224-49.68622284-49.68622285-49.68622284-27.35533617 0-49.57456838 22.33088667-49.57456837 49.68622284z m0 0M662.84513941 435.40505874c0 17.75305489 9.49062682 34.1662566 24.78728421 42.98695684 15.4083118 8.82070024 34.27791103 8.82070024 49.6862228 0s24.7872842-25.23390194 24.78728423-42.98695684c0-27.4669906-22.21923224-49.68622284-49.68622285-49.68622284s-49.57456838 22.33088667-49.57456839 49.68622284z m0 0" fill="#ffffff" p-id="2608"></path></svg>