<?xml version="1.0" standalone="no"?><!DOCTYPE svg PUBLIC "-//W3C//DTD SVG 1.1//EN" "http://www.w3.org/Graphics/SVG/1.1/DTD/svg11.dtd"><svg t="1528882618401" class="icon" style="" viewBox="0 0 1024 1024" version="1.1" xmlns="http://www.w3.org/2000/svg" p-id="1933" xmlns:xlink="http://www.w3.org/1999/xlink" width="48" height="48"><defs><style type="text/css"></style></defs><path d="M525.608949 1007.64245c-3.989871 3.148713-8.798387 4.730745-13.608949 4.730745s-9.616008-1.582031-13.608949-4.730745c-14.775518-11.626805-361.863584-332.791455-361.863584-620.696608 0-206.958562 168.447457-375.318014 375.472534-375.318014 207.028147 0 375.472534 168.359452 375.472534 375.318014C887.472534 674.849972 540.383444 996.015645 525.608949 1007.64245zM512 211.639165c-96.765881 0-175.210487 78.443583-175.210487 175.210487 0 96.763834 78.443583 175.207417 175.210487 175.207417s175.210487-78.444607 175.210487-175.207417C687.209464 290.083771 608.765881 211.639165 512 211.639165z" p-id="1934" fill="#ffffff"></path></svg>