<?xml version="1.0" standalone="no"?><!DOCTYPE svg PUBLIC "-//W3C//DTD SVG 1.1//EN" "http://www.w3.org/Graphics/SVG/1.1/DTD/svg11.dtd"><svg t="1528946506279" class="icon" style="" viewBox="0 0 1024 1024" version="1.1" xmlns="http://www.w3.org/2000/svg" p-id="4349" xmlns:xlink="http://www.w3.org/1999/xlink" width="48" height="48"><defs><style type="text/css"></style></defs><path d="M892.3 196.4c-43.8-43.8-102.5-67.9-165.4-67.9-64.5 0-125.1 25.2-170.8 70.9l-36.9 36.9-6.6 7.3-63.8 65.3c-10.3 10.5-10.1 27.4 0.4 37.7 5.2 5.1 11.9 7.6 18.6 7.6 6.9 0 13.8-2.7 19.1-8l88.6-90.6c0.2-0.2 0.3-0.4 0.5-0.6l17.9-17.9c35.6-35.6 82.9-55.3 133.1-55.3 48.6 0 94 18.6 127.7 52.3 71.1 71.1 69.8 188.1-2.9 260.9l-44.2 44.2-37.7 37.7-258.1 257.8-257.9-257.9-37.7-37.7-44.2-44.2c-72.7-72.7-74.1-189.8-3-260.9 33.7-33.7 79.1-52.3 127.7-52.3 50.2 0 97.5 19.6 133.2 55.3l8.7 8.7 36.3-39-7.3-7.3c-45.7-45.7-106.4-70.9-170.8-70.9-62.9 0-121.6 24.1-165.4 67.9-91.9 91.9-90.6 242.7 3 336.2l47.1 47.1 38.6 38.6 250.3 250.3 2.5 2.5c9.6 8.6 24.8 19.8 38.8 19.8 15.2 0 26.2-7.4 37.5-18.1l4.2-4.2 250.3-250.3 38.5-38.5 47.2-47.2c93.5-93.5 94.8-244.3 2.9-336.2z" p-id="4350" fill="#ffffff"></path></svg>