<?xml version="1.0" standalone="no"?><!DOCTYPE svg PUBLIC "-//W3C//DTD SVG 1.1//EN" "http://www.w3.org/Graphics/SVG/1.1/DTD/svg11.dtd"><svg t="1528705338430" class="icon" style="" viewBox="0 0 1024 1024" version="1.1" xmlns="http://www.w3.org/2000/svg" p-id="1929" xmlns:xlink="http://www.w3.org/1999/xlink" width="48" height="48"><defs><style type="text/css"></style></defs><path d="M923.852 338.007c-20.013-47.313-47.718-90.324-82.45-128.128 6.876-13.544 10.755-28.866 10.755-45.096 0-55.1-44.668-99.767-99.768-99.767-29.051 0-55.198 12.42-73.431 32.237-53.058-21.39-109.184-32.237-166.959-32.237-60.334 0-118.873 11.821-173.988 35.134-53.233 22.514-101.031 54.742-142.074 95.784-41.046 41.044-73.273 88.845-95.786 142.074-23.313 55.119-35.137 113.658-35.137 173.993 0 60.333 11.824 118.873 35.134 173.99 22.514 53.23 54.742 101.03 95.786 142.073 41.042 41.044 88.841 73.271 142.074 95.786 55.116 23.312 113.655 35.134 173.99 35.134S630.87 947.162 685.99 923.85c53.23-22.515 101.03-54.743 142.073-95.786 41.046-41.043 73.273-88.843 95.786-142.073 23.31-55.117 35.134-113.657 35.134-173.99 0.003-60.335-11.822-118.873-35.131-173.994z m-35.96 332.776c-20.546 48.576-49.961 92.204-87.43 129.677-37.474 37.47-81.1 66.888-129.68 87.432-50.28 21.263-103.703 32.048-158.784 32.048-55.077 0-108.5-10.783-158.785-32.048-48.575-20.546-92.204-49.962-129.676-87.432-37.473-37.473-66.889-81.101-87.43-129.677-21.268-50.28-32.052-103.704-32.052-158.784s10.784-108.503 32.051-158.783c20.542-48.576 49.96-92.206 87.43-129.677 37.473-37.47 81.102-66.887 129.677-87.433 50.285-21.266 103.708-32.05 158.785-32.05 50.6 0 99.798 9.107 146.448 27.075-3.768 10.514-5.825 21.842-5.825 33.653 0 55.1 44.668 99.767 99.767 99.767 24.574 0 47.066-8.89 64.453-23.62 29.738 33.371 53.604 71.037 71.05 112.285 21.267 50.28 32.05 103.702 32.05 158.783s-10.782 108.504-32.05 158.784z" p-id="1930" fill="#4284f4"></path></svg>