<?xml version="1.0" standalone="no"?><!DOCTYPE svg PUBLIC "-//W3C//DTD SVG 1.1//EN" "http://www.w3.org/Graphics/SVG/1.1/DTD/svg11.dtd"><svg class="icon" width="48px" height="48.00px" viewBox="0 0 1024 1024" version="1.1" xmlns="http://www.w3.org/2000/svg"><path fill="#999999" d="M768 341.333333l-42.666667 0 0-85.333333c0-117.76-95.573333-213.333333-213.333333-213.333333s-213.333333 95.573333-213.333333 213.333333l0 85.333333-42.666667 0c-47.146667 0-85.333333 38.186667-85.333333 85.333333l0 426.666667c0 47.146667 38.186667 85.333333 85.333333 85.333333l512 0c47.146667 0 85.333333-38.186667 85.333333-85.333333l0-426.666667c0-47.146667-38.186667-85.333333-85.333333-85.333333zM512 725.333333c-47.146667 0-85.333333-38.186667-85.333333-85.333333s38.186667-85.333333 85.333333-85.333333 85.333333 38.186667 85.333333 85.333333-38.186667 85.333333-85.333333 85.333333zM644.266667 341.333333l-264.533333 0 0-85.333333c0-72.96 59.306667-132.266667 132.266667-132.266667s132.266667 59.306667 132.266667 132.266667l0 85.333333z" /></svg>