<?xml version="1.0" encoding="UTF-8"?>
<svg width="300px" height="300px" viewBox="0 0 300 300" version="1.1" xmlns="http://www.w3.org/2000/svg" xmlns:xlink="http://www.w3.org/1999/xlink">
    <!-- Generator: Sketch 50.2 (55047) - http://www.bohemiancoding.com/sketch -->
    <title>icon</title>
    <desc>Created with Sketch.</desc>
    <defs>
        <linearGradient x1="0%" y1="0%" x2="100%" y2="100%" id="linearGradient-1">
            <stop stop-color="#77BAFA" offset="0%"></stop>
            <stop stop-color="#4284F4" offset="100%"></stop>
        </linearGradient>
    </defs>
    <g id="Symbols" stroke="none" stroke-width="1" fill="none" fill-rule="evenodd">
        <g id="icon">
            <g>
                <rect id="Rectangle" fill="url(#linearGradient-1)" x="0" y="0" width="300" height="300"></rect>
                <path d="M216.121412,91.9381091 C212.941269,88.7579669 208.714248,87 204.230445,87 L88.9354754,87.0987623 L88.915723,112.026337 L79,112.026337 L79,120.737161 L88.8959706,120.737161 L88.8762181,141.595733 L79,141.595733 L79,150.267053 L88.8762181,150.267053 L88.8564656,171.086121 L79,171.086121 L79,179.796945 L88.8564656,179.796945 L88.8367133,200.655517 L79,200.655517 L79,209.346589 L88.8169608,209.346589 L88.7972083,237 L204.210693,236.881485 C213.494338,236.881485 221.039768,229.336055 221.039768,220.05241 L221.039768,103.829076 C221.039768,99.3452727 219.301554,95.1182514 216.121412,91.9381091 Z M212.328944,103.829076 L212.328944,220.05241 C212.328944,224.694232 208.615486,228.466948 204.032921,228.466948 L191.94443,228.466948 L191.94443,95.7305768 L204.032921,95.7305768 C208.615486,95.7503293 212.328944,99.187253 212.328944,103.829076 Z M97.4685279,200.655517 L97.5080327,179.796945 L108.668159,179.796945 L108.668159,171.086121 L97.5277851,171.086121 L97.5672901,150.267053 L108.668159,150.267053 L108.668159,141.595733 L97.5870424,141.595733 L97.6265474,120.737161 L108.668159,120.737161 L108.668159,112.026337 L97.6462997,112.026337 L97.6858047,95.7898341 L183.292863,95.8293391 L183.292863,228.545957 L97.4290229,228.506453 L97.4685279,209.326837 L108.668159,209.326837 L108.668159,200.655517 L97.4685279,200.655517 Z" id="Shape" fill="#FFFFFF" fill-rule="nonzero"></path>
            </g>
        </g>
    </g>
</svg>