<?xml version="1.0" standalone="no"?><!DOCTYPE svg PUBLIC "-//W3C//DTD SVG 1.1//EN" "http://www.w3.org/Graphics/SVG/1.1/DTD/svg11.dtd"><svg t="1528730516972" class="icon" style="" viewBox="0 0 1024 1024" version="1.1" xmlns="http://www.w3.org/2000/svg" p-id="4170" xmlns:xlink="http://www.w3.org/1999/xlink" width="48" height="48"><defs><style type="text/css"></style></defs><path d="M 947.2 426.667 c -2.13334 -17.0666 -12.8 -32 -32 -36.2666 h -2.13334 c -38.4 -8.53333 -66.1333 -29.8667 -87.4667 -66.1333 c -19.2 -32 -25.6 -72.5333 -12.8 -108.8 c 6.4 -14.9333 2.13334 -34.1333 -12.8 -46.9333 c -40.5334 -38.4 -89.6 -68.2667 -145.067 -87.4667 c -14.9333 -6.4 -32 -2.13334 -46.9333 12.8 C 584.533 123.733 548.266 138.667 507.733 138.667 c -36.2666 0 -70.4 -17.0666 -100.267 -46.9333 c -17.0666 -17.0666 -34.1333 -14.9333 -46.9333 -10.6667 c -55.4666 23.4667 -102.4 51.2 -142.933 85.3333 c -14.9333 10.6667 -21.3334 29.8667 -14.9333 46.9333 c 10.6667 40.5334 6.4 78.9334 -12.8 113.066 c -17.0666 29.8667 -49.0667 53.3333 -87.4667 64 c -2.13334 0 -2.13334 0 -4.26667 2.13334 c -12.8 6.4 -21.3334 17.0666 -27.7333 32 v 2.13334 c -6.4 32 -8.53333 59.7334 -8.53333 87.4667 c 0 27.7333 2.13334 59.7334 8.53333 85.3333 c 2.13334 17.0666 12.8 32 32 36.2666 h 2.13334 c 38.4 8.53333 66.1333 29.8667 87.4667 66.1333 c 19.2 32 25.6 72.5333 12.8 108.8 c -6.4 14.9333 -2.13334 34.1333 12.8 46.9333 c 40.5334 38.4 89.6 68.2667 147.2 87.4667 c 2.13334 0 4.26667 2.13334 8.53333 2.13333 h 6.4 c 10.6667 0 23.4667 -4.26667 34.1333 -14.9333 c 23.4667 -27.7333 59.7334 -44.8 100.267 -44.8 c 36.2666 0 70.4 17.0666 100.267 46.9333 c 8.53333 8.53333 19.2 14.9333 29.8667 14.9333 c 4.26667 0 10.6667 0 14.9333 -2.13334 c 55.4666 -23.4667 102.4 -51.2 142.933 -85.3333 c 14.9333 -8.53333 21.3334 -29.8667 14.9333 -46.9333 c -10.6667 -40.5334 -6.4 -78.9334 12.8 -113.066 c 17.0666 -29.8667 49.0667 -53.3333 87.4667 -64 c 2.13334 0 2.13334 0 4.26667 -2.13334 c 12.8 -6.4 21.3334 -17.0666 27.7333 -32 v -2.13334 c 6.4 -32 8.53333 -59.7334 8.53333 -87.4667 c -2.13334 -29.8667 -4.26667 -59.7334 -10.6667 -87.4667 Z m -439.466 234.667 c -83.2 0 -149.333 -66.1333 -149.333 -149.333 s 66.1333 -149.333 149.333 -149.333 s 149.333 66.1333 149.333 149.333 s -66.1333 149.333 -149.333 149.333 Z" fill="#ffffff" p-id="4171"></path></svg>