<?xml version="1.0" standalone="no"?><!DOCTYPE svg PUBLIC "-//W3C//DTD SVG 1.1//EN" "http://www.w3.org/Graphics/SVG/1.1/DTD/svg11.dtd"><svg t="1528970589971" class="icon" style="" viewBox="0 0 1026 1024" version="1.1" xmlns="http://www.w3.org/2000/svg" p-id="2018" xmlns:xlink="http://www.w3.org/1999/xlink" width="48.09375" height="48"><defs><style type="text/css"></style></defs><path d="M123.09 233.84h46.69v13.23h-46.69z" p-id="2019" fill="#4284f4"></path><path d="M139.812 215.875h13.24v50.575h-13.24z m613.12-168.853h46.684v13.235h-46.684z" p-id="2020" fill="#4284f4"></path><path d="M769.654 29.056h13.235v50.575h-13.235z m170.388 310.595h46.69v13.235h-46.69z" p-id="2021" fill="#4284f4"></path><path d="M956.77 321.69h13.245v50.575h-13.246zM230.056 825.01c-0.005-0.235-0.036-0.47-0.036-0.701V302.78c0-41.364 32.655-75.013 72.786-75.013h507.259c40.13 0 72.786 33.649 72.786 75.013V824.31c0 0.23-0.03 0.466-0.036 0.701h12.882c0.118 0 0.23 0.016 0.348 0.016 0.005-0.246 0.036-0.477 0.036-0.717V302.78c0-48.66-38.59-88.248-86.016-88.248H302.807c-47.432 0-86.021 39.588-86.021 88.248V824.31c0 0.23 0.036 0.466 0.036 0.701h13.235z" p-id="2022" fill="#4284f4"></path><path d="M223.401 370.954H892.58v13.23H223.4z m80.927-36.982c-17.92 0-32.492-14.576-32.492-32.491s14.577-32.492 32.492-32.492c17.91 0 32.481 14.577 32.481 32.492s-14.572 32.491-32.481 32.491z m0-51.742c-10.62 0-19.257 8.637-19.257 19.256s8.638 19.251 19.257 19.251c10.613 0 19.25-8.637 19.25-19.25s-8.637-19.257-19.25-19.257z m80.921 53.063a32.522 32.522 0 0 1-32.486-32.486c0-17.915 14.577-32.486 32.486-32.486s32.487 14.576 32.487 32.486a32.527 32.527 0 0 1-32.487 32.486z m0-51.742c-10.619 0-19.25 8.637-19.25 19.256s8.637 19.251 19.25 19.251c10.614 0 19.251-8.637 19.251-19.251s-8.637-19.256-19.25-19.256z m78.67 53.069a32.522 32.522 0 0 1-32.482-32.487c0-17.915 14.571-32.497 32.481-32.497a32.532 32.532 0 0 1 32.492 32.497 32.527 32.527 0 0 1-32.492 32.487z m0-51.738a19.272 19.272 0 0 0-19.247 19.256 19.277 19.277 0 0 0 19.246 19.251 19.277 19.277 0 0 0 19.251-19.25 19.272 19.272 0 0 0-19.25-19.257z m98.743 15.744h236.534v13.235H562.662zM416.369 609.157a34.232 31.124 90 1 0 62.249 0 34.232 31.124 90 1 0-62.25 0zM628.02 615.373a34.243 31.124 90 1 0 62.248 0 34.243 31.124 90 1 0-62.249 0zM444.099 782.966l-9.355-9.354c72.346-72.315 189.307-73.037 260.716-1.593l-9.35 9.354c-66.252-66.273-174.822-65.566-242.011 1.593zM1024.932 874.634c-92.897-25.144-199.875 0.302-283.582 69.955h21.269c79.345-59.976 177.372-80.558 262.308-56.238v-13.717z m-717.215 60.621h17.869c-22.195-25.585-49.618-47.595-81.695-64.875C171.741 831.514 85.125 820.756 0 840.136l2.939 12.902c81.997-18.662 165.345-8.366 234.67 28.995 26.941 14.515 50.422 32.517 70.108 53.222z m176.768 22.871c-32.266-49.331-104.811-59.182-161.705-21.97l-7.245-11.085c63.007-41.2 143.765-29.624 180.02 25.81l-11.07 7.245z" p-id="2023" fill="#4284f4"></path><path d="M487.521 958.674l-8.683-9.979c89.395-77.763 212.408-83.23 274.237-12.18l-9.984 8.688c-57.026-65.54-171.673-59.504-255.57 13.47zM277.95 974.935h7.957c-9.882-11.387-22.098-21.192-36.373-28.887-32.133-17.306-70.702-22.093-108.605-13.47l1.31 5.744c36.511-8.305 73.626-3.727 104.5 12.913a124.57 124.57 0 0 1 31.211 23.7z" p-id="2024" fill="#4284f4"></path><path d="M358.405 988.104c-7.183-10.983-18.888-18.11-32.978-20.081-14.418-2.002-29.563 1.587-42.644 10.143l-7.245-11.08c15.764-10.306 34.13-14.623 51.717-12.17 17.925 2.504 32.917 11.72 42.22 25.943l-11.07 7.245z" p-id="2025" fill="#4284f4"></path><path d="M277.499 968.996h7.956c-9.886-11.392-22.098-21.197-36.377-28.892-32.128-17.306-70.702-22.093-108.606-13.466l1.306 5.74c36.516-8.305 73.636-3.723 104.5 12.912a124.462 124.462 0 0 1 31.22 23.706z m603.98-55.987c-33.663-1.373-72.56 14.612-103.362 45.824l9.42 9.292c27.977-28.334 62.915-43.038 92.658-42.035l1.285-13.081z" p-id="2026" fill="#4284f4"></path></svg>