<?xml version="1.0" standalone="no"?><!DOCTYPE svg PUBLIC "-//W3C//DTD SVG 1.1//EN" "http://www.w3.org/Graphics/SVG/1.1/DTD/svg11.dtd"><svg t="1528703522101" class="icon" style="" viewBox="0 0 1024 1024" version="1.1" xmlns="http://www.w3.org/2000/svg" p-id="3505" xmlns:xlink="http://www.w3.org/1999/xlink" width="48" height="48"><defs><style type="text/css"></style></defs><path d="M946.1691882666667 51.16097706666666c-20.887864533333335-20.887864533333335-48.6518592-32.4345728-78.10245013333333-32.4345728l-757.2824010666667 0.6486922666666667-0.12973866666666667 163.7297216h-65.12862186666666v57.21458666666666h64.99888426666666l-0.12973866666666667 137.00363413333335h-64.8691456v56.95510933333333h64.8691456L110.26538346666666 571.0223072h-64.73940693333333v57.2145856h64.73940693333333l-0.1297376 137.00363413333335h-64.60966933333333v57.084848h64.47993066666668l-0.12973866666666667 181.63360640000002 758.0608309333334-0.7784298666666667c60.97699626666667 0 110.53702293333333-49.560026666666666 110.537024-110.53702293333333V129.2634282666667c0-29.450591999999997-11.4169696-57.2145856-32.3048352-78.10245119999999z m-24.909751466666666 78.10245119999999v763.3801002666667c0 30.488498133333334-24.390798933333333 55.268512-54.49008213333333 55.268512h-79.3998336v-871.841312h79.3998336c30.0992832 0.12973866666666667 54.49008213333333 22.704200533333335 54.49008213333333 53.192699733333335zM166.8312789333333 765.2405269333334l0.2594762666666667-137.00363413333335h73.3021344V571.0223072H167.22049280000005l0.25947733333333334-136.74415893333335h72.91291946666666v-56.95510933333333H167.60970773333332l0.25947733333333334-137.00363413333335h72.52370453333333V183.10481813333328H167.99892266666666l0.25947733333333334-106.64487466666667 562.2857504 0.25947733333333334v871.7115722666666l-563.9723488-0.2594762666666667 0.25947733333333334-125.97587946666665h73.56161066666667v-56.955110399999995H166.8312789333333z m0 0" p-id="3506" fill="#ffffff"></path></svg>