<?xml version="1.0" standalone="no"?><!DOCTYPE svg PUBLIC "-//W3C//DTD SVG 1.1//EN" "http://www.w3.org/Graphics/SVG/1.1/DTD/svg11.dtd"><svg t="1528884199988" class="icon" style="" viewBox="0 0 1024 1024" version="1.1" xmlns="http://www.w3.org/2000/svg" p-id="4295" xmlns:xlink="http://www.w3.org/1999/xlink" width="48" height="48"><defs><style type="text/css"></style></defs><path d="M763.998253 204C763.998253 234.926 789.07225 260 819.998253 260 850.92425 260 875.998253 234.926 875.998253 204 875.998253 173.074 850.92425 148 819.998253 148 789.07225 148 763.998253 173.074 763.998253 204M959.998253 204 959.998253 512C959.998253 526.854 954.10425 541.092 943.60425 551.599L551.59025 943.599002C540.67025 954.532998 526.32725 960 511.99825 960 497.66925 960 483.34025 954.532998 472.40625 943.599002L80.40625 551.599C58.53125 529.724 58.53125 494.276 80.40625 472.401L472.40625 80.401C482.90625 69.901 497.15125 64 511.99825 64L819.998253 64C897.201248 64 959.998253 126.804 959.998253 204" p-id="4296" fill="#ffffff"></path></svg>