<?xml version="1.0" standalone="no"?><!DOCTYPE svg PUBLIC "-//W3C//DTD SVG 1.1//EN" "http://www.w3.org/Graphics/SVG/1.1/DTD/svg11.dtd"><svg t="1529503966868" class="icon" style="" viewBox="0 0 1024 1024" version="1.1" xmlns="http://www.w3.org/2000/svg" p-id="2746" xmlns:xlink="http://www.w3.org/1999/xlink" width="48" height="48"><defs><style type="text/css"></style></defs><path d="M150.4 102.976c-15.488 0-27.968 11.648-27.968 25.984l0 51.904 779.072 0L901.504 128.96c0-14.336-12.48-25.984-27.968-25.984L580.16 102.976 580.16 64 424.384 64l0 38.976L150.4 102.976zM671.104 388.608l0 415.552L632.128 804.16 632.128 388.608 671.104 388.608zM515.264 388.608l0 415.552L476.288 804.16 476.288 388.608 515.264 388.608zM359.424 388.608l0 415.552L320.448 804.16 320.448 388.608 359.424 388.608zM164.672 219.84l0 675.264c0 35.84 29.632 64.96 66.112 64.96l543.04 0c36.48 0 53.12-29.12 53.12-64.96L826.944 219.84 164.672 219.84z" p-id="2747" fill="#ffffff"></path></svg>