<?xml version="1.0" standalone="no"?><!DOCTYPE svg PUBLIC "-//W3C//DTD SVG 1.1//EN" "http://www.w3.org/Graphics/SVG/1.1/DTD/svg11.dtd"><svg class="icon" width="48px" height="48.00px" viewBox="0 0 1024 1024" version="1.1" xmlns="http://www.w3.org/2000/svg"><path fill="#999999" d="M860.335 717.303c2.571 7.972 4.504 18.191 5.781 30.683a362.78 362.78 0 0 1 1.932 37.444c0 12.482-0.897 24.308-2.698 35.457-1.8 11.155-4.498 19.65-8.104 25.503 8.451-12.217-32.258 75.313-346.398 77.669-85.333-0.688-264.611-6.045-342.985-69.703-5.66-4.256-9.905-17.266-12.729-39.047-2.83-21.781-1.674-49.667 3.474-83.665 3.083-19.65 10.797-34.521 23.141-44.618 12.344-10.092 26.879-18.059 43.594-23.906 16.721-5.836 81.584-11.155 99.323-15.934 17.756-4.779 33.315-11.689 46.683-20.718 10.802-6.91 19.165-13.544 25.079-19.925 5.924-6.365 10.031-12.74 12.349-19.116 2.307-6.376 3.474-13.016 3.474-19.914 0-6.915-0.259-14.353-0.776-22.315-1.024-12.751-5.016-22.579-11.958-29.483-6.943-6.904-14.788-14.078-23.531-21.511-4.118-3.722-7.719-8.903-10.802-15.537a278.341 278.341 0 0 1-8.49-20.322 1467.498 1467.498 0 0 1-7.719-24.699c-3.601-1.063-7.201-2.924-10.797-5.577-3.089-2.659-6.436-6.37-10.037-11.155-3.595-4.784-6.684-11.689-9.255-20.718-2.571-9.035-3.469-17.128-2.703-24.302 0.776-7.174 2.191-13.412 4.25-18.725 2.054-5.842 5.142-11.419 9.25-16.732-0.512-20.184 0.523-40.368 3.094-60.552 2.054-17.007 5.787-35.06 11.182-54.187 5.407-19.121 13.247-36.393 23.537-51.792 9.778-14.342 20.713-26.163 32.792-35.451 12.091-9.299 24.308-16.605 36.652-21.918 12.338-5.313 24.814-9.024 37.422-11.155 12.603-2.125 24.82-3.182 36.646-3.182 14.926 0 29.197 1.85 42.835 5.572 13.627 3.722 26.356 8.501 38.188 14.348 11.832 5.836 22.375 12.344 31.636 19.518 9.261 7.174 16.715 14.475 22.375 21.913 12.861 16.996 22.502 35.721 28.933 56.175 6.436 20.454 10.934 39.707 13.506 57.761 3.089 21.252 4.372 42.499 3.854 63.745 3.601 2.125 6.431 5.319 8.495 9.569 2.059 3.716 3.722 8.495 5.016 14.337 1.277 5.842 1.409 13.016 0.38 21.511-1.542 11.155-3.986 20.052-7.334 26.697-3.336 6.64-7.069 11.821-11.177 15.537-4.636 4.25-9.525 7.174-14.673 8.765a339.54 339.54 0 0 1-6.943 24.699 198.874 198.874 0 0 1-8.87 20.322c-3.342 6.634-7.069 11.815-11.188 15.537-4.625 4.25-9.002 7.835-13.115 10.753-4.113 2.924-7.725 5.979-10.802 9.161-3.089 3.188-5.654 7.042-7.719 11.557-2.054 4.515-3.601 9.965-4.63 16.336-1.542 7.967-2.059 16.066-1.542 24.302 0.512 8.231 2.571 16.468 6.172 24.693 3.595 8.237 9.519 16.071 17.745 23.515 8.231 7.438 19.292 14.073 33.183 19.92 12.856 5.308 26.879 9.954 42.053 13.94 15.174 3.986 77.455 8.76 91.604 14.342 14.15 5.577 26.747 12.619 37.813 21.114 11.056 8.501 18.907 19.656 23.532 33.464zM516.408 847.982c2.582 0 6.563-1.729 11.958-5.181 5.401-3.452 10.681-7.565 15.823-12.349 5.148-4.779 9.651-9.563 13.5-14.342 3.86-4.784 5.792-8.501 5.792-11.155 0-3.188-0.776-8.76-2.312-16.732a1316.82 1316.82 0 0 0-5.407-26.295 4236.387 4236.387 0 0 0-6.172-28.288c-2.054-9.299-3.859-16.864-5.401-22.711 5.148-4.25 9.519-8.897 13.12-13.94 3.595-5.043 5.396-10.224 5.396-15.537 0-4.256-1.409-8.628-4.239-13.148-2.83-4.515-6.051-8.369-9.646-11.551a297.347 297.347 0 0 0-13.115-11.155h-38.59c-5.142 3.711-9.508 7.438-13.109 11.155-3.089 3.182-5.919 6.904-8.49 11.155s-3.86 8.501-3.86 12.746c0 3.188 1.933 7.438 5.792 12.746 3.854 5.319 8.611 10.362 14.276 15.146-1.547 4.784-3.606 11.683-6.177 20.713a625.998 625.998 0 0 0-7.328 28.283c-2.318 9.833-4.377 19.127-6.172 27.892-1.8 8.765-2.703 15.273-2.703 19.523 0 2.654 1.927 6.37 5.787 11.155 3.86 4.779 8.484 9.563 13.891 14.342 5.396 4.784 10.676 8.897 15.818 12.349 5.138 3.45 9.003 5.179 11.568 5.179z" /></svg>